<svg xmlns="http://www.w3.org/2000/svg" viewBox="0 0 60 30">
  <rect width="60" height="10" fill="#FF9933"/>
  <rect y="10" width="60" height="10" fill="#FFFFFF"/>
  <rect y="20" width="60" height="10" fill="#138808"/>
  <!-- Ashoka Chakra (simplified) -->
  <circle cx="30" cy="15" r="4.5" fill="none" stroke="#000080" stroke-width="0.8"/>
  <g stroke="#000080" stroke-width="0.5" transform="translate(30,15)">
    <line x1="0" y1="-3.5" x2="0" y2="3.5"/>
    <line x1="0" y1="-3.5" x2="0" y2="3.5" transform="rotate(15)"/>
    <line x1="0" y1="-3.5" x2="0" y2="3.5" transform="rotate(30)"/>
    <line x1="0" y1="-3.5" x2="0" y2="3.5" transform="rotate(45)"/>
    <line x1="0" y1="-3.5" x2="0" y2="3.5" transform="rotate(60)"/>
    <line x1="0" y1="-3.5" x2="0" y2="3.5" transform="rotate(75)"/>
    <line x1="0" y1="-3.5" x2="0" y2="3.5" transform="rotate(90)"/>
    <line x1="0" y1="-3.5" x2="0" y2="3.5" transform="rotate(105)"/>
    <line x1="0" y1="-3.5" x2="0" y2="3.5" transform="rotate(120)"/>
    <line x1="0" y1="-3.5" x2="0" y2="3.5" transform="rotate(135)"/>
    <line x1="0" y1="-3.5" x2="0" y2="3.5" transform="rotate(150)"/>
    <line x1="0" y1="-3.5" x2="0" y2="3.5" transform="rotate(165)"/>
  </g>
</svg>
