<svg xmlns="http://www.w3.org/2000/svg" viewBox="0 0 9 6">
  <rect width="9" height="6" fill="#DE2910"/>
  <polygon points="1.5,0.6 1.75,1.35 2.5,1.35 1.9,1.8 2.1,2.55 1.5,2.1 0.9,2.55 1.1,1.8 0.5,1.35 1.25,1.35" fill="#FFDE00"/>
  <polygon points="3,0.3 3.15,0.75 3.6,0.75 3.22,1 3.37,1.45 3,1.2 2.63,1.45 2.78,1 2.4,0.75 2.85,0.75" fill="#FFDE00"/>
  <polygon points="3.7,0.9 3.85,1.35 4.3,1.35 3.92,1.6 4.07,2.05 3.7,1.8 3.33,2.05 3.48,1.6 3.1,1.35 3.55,1.35" fill="#FFDE00"/>
  <polygon points="3.7,1.9 3.85,2.35 4.3,2.35 3.92,2.6 4.07,3.05 3.7,2.8 3.33,3.05 3.48,2.6 3.1,2.35 3.55,2.35" fill="#FFDE00"/>
  <polygon points="3,2.6 3.15,3.05 3.6,3.05 3.22,3.3 3.37,3.75 3,3.5 2.63,3.75 2.78,3.3 2.4,3.05 2.85,3.05" fill="#FFDE00"/>
</svg>
